<?xml version="1.0" encoding="UTF-8"?>
<svg data-bbox="0.12 -4.621 40.193 44.56" viewBox="0 0 40.43 40.06" xmlns="http://www.w3.org/2000/svg" data-type="ugc">
    <g>
        <path d="M20.2 36.35c-.06-.03-.13-.02-.19 0 .06.04.14.04.2 0Z" fill="none" stroke="#ffff" stroke-miterlimit="10" stroke-width=".25"/>
        <path d="M20.2 3.16a.25.25 0 0 0-.19 0c.06.03.14.03.2 0Z" fill="none" stroke="#ffff" stroke-miterlimit="10" stroke-width=".25"/>
        <path d="M24.17 6.38c-2.7-1.06-5.8-1.09-8.36.23l-.05.12v.12l.02.12c2.62 1.45 6.04 1.45 8.66 0l.03-.12v-.12l-.07-.12a.756.756 0 0 0-.24-.23Z" fill="none" stroke="#ffff" stroke-miterlimit="10" stroke-width=".25"/>
        <path d="M24.16 32.28c-2.69-1.08-5.79-1.11-8.34.23l-.05.12v.12l.02.12c2.61 1.48 6.03 1.47 8.65 0l.03-.12v-.12l-.07-.12a.756.756 0 0 0-.24-.23Z" fill="none" stroke="#ffff" stroke-miterlimit="10" stroke-width=".25"/>
        <path d="m20.19 36.35.01.01c-.06.03-.14.03-.2 0 .06-.03.13-.03.19-.01Z" fill="none" stroke="#ffff" stroke-miterlimit="10" stroke-width=".25"/>
        <path d="M20.2 3.16c-.06.04-.14.04-.2 0 .06-.03.13-.03.19-.01Z" fill="none" stroke="#ffff" stroke-miterlimit="10" stroke-width=".25"/>
        <path d="M23.99 6.27c.16.08.31.2.42.34l.05.12v.12l-.02.12c-2.62 1.45-6.04 1.45-8.66 0l-.03-.12v-.12l.07-.12c2.51-1.28 5.48-1.27 8.18-.34Z" fill="none" stroke="#ffff" stroke-miterlimit="10" stroke-width=".25"/>
        <path d="M23.98 32.17c.16.08.31.2.41.35l.05.12v.12l-.02.12c-2.61 1.48-6.03 1.47-8.65 0l-.03-.12v-.12l.07-.12c2.5-1.3 5.48-1.29 8.16-.34Z" fill="none" stroke="#ffff" stroke-miterlimit="10" stroke-width=".25"/>
        <path d="m37.84 23.84.82.5.64.53.45.54.26.55.06.56-.14.55-.34.55-.53.54-.72.52-.9.5-1.08.47-1.24.44-1.39.4-1.53.36-1.65.32-1.75.27-1.84.22-1.91.16-1.96.11-1.99.06h-2l-1.99-.06-1.96-.11-1.91-.17-1.84-.22-1.75-.27L8 30.84l-1.53-.36-1.39-.4-1.24-.44-1.08-.47-.9-.5-.72-.52-.53-.54-.34-.55h.01l-.14-.55.06-.56.26-.55H.45l.45-.54.64-.53.82-.5 1-.48 1.16-.45 1.32-.41 1.46-.38 1.58-.33 1.69-.29 1.79-.24 1.86-.19 1.92-.14 1.96-.08 1.98-.03 1.98.03 1.96.08 1.92.14 1.86.19 1.79.24 1.69.29 1.58.33 1.46.38 1.32.41 1.16.45 1 .48Z" fill="none" stroke="#ffff" stroke-miterlimit="10" stroke-width=".25"/>
        <path d="m34.08 11.16.65.39.5.41.35.42.2.43.04.43-.11.43-.27.43-.42.42-.57.4-.71.39-.85.37-.98.34-1.09.31-1.2.28-1.3.25-1.38.21-1.45.17-1.5.13-1.54.09-1.56.04h-1.57c-.52-.01-1.04-.03-1.56-.04l-1.54-.09-1.5-.13-1.45-.17-1.38-.21-1.3-.25-1.2-.28-1.09-.31-.98-.34-.85-.37-.71-.39-.57-.4-.42-.42-.27-.43-.11-.43.04-.43.2-.43.35-.42.5-.41.65-.39.79-.37.92-.35 1.04-.32 1.15-.29 1.25-.26 1.34-.22 1.41-.19 1.47-.15 1.51-.11 1.55-.06 1.56-.02 1.56.02 1.55.06 1.51.11 1.47.15 1.41.19 1.34.22 1.25.26 1.15.29 1.04.32.92.35.79.37Z" fill="none" stroke="#ffff" stroke-miterlimit="10" stroke-width=".25"/>
        <path d="M33.21 33.29c.71.33 1.27.88 1.6 1.58.01.14.03.28.04.41-.04.14-.07.27-.11.41-5.38 5.66-23.91 5.67-29.28 0-.04-.14-.07-.27-.11-.41.01-.14.03-.28.04-.41 5.19-6.35 21.19-4.6 27.81-1.58Z" fill="none" stroke="#ffff" stroke-miterlimit="10" stroke-width=".25"/>
        <path d="M30.51 5.73c.44.22.82.53 1.12.91.05.11.1.21.15.32l.03.32c-.03.11-.06.21-.08.32-4.75 4.38-18.48 4.38-23.24 0-.03-.11-.06-.21-.08-.32l.03-.32c.05-.11.1-.21.15-.32 5.29-4.19 16.02-3.43 21.93-.91Z" fill="none" stroke="#ffff" stroke-miterlimit="10" stroke-width=".25"/>
        <path d="M23.49 35.87c.18.09.33.23.41.41v.11c0 .04-.02.07-.03.11a7.977 7.977 0 0 1-7.56 0c0-.04-.02-.07-.03-.11v-.11s.04-.07.06-.11c2.21-1.11 4.77-1.15 7.14-.3Z" fill="none" stroke="#ffff" stroke-miterlimit="10" stroke-width=".25"/>
        <path d="M23.99 6.81c.16.08.31.2.42.34.02.04.04.08.05.12 0 .04 0 .08.01.12l-.03.12c-2.62 1.45-6.04 1.45-8.66 0l-.03-.12c0-.04 0-.08.01-.12l.05-.12c2.51-1.28 5.48-1.27 8.18-.34Z" fill="none" stroke="#ffff" stroke-miterlimit="10" stroke-width=".25"/>
        <path d="M20.19 29.22c-.06.03-.14.03-.2 0 .06-.03.13-.03.19-.01Z" fill="none" stroke="#ffff" stroke-miterlimit="10" stroke-width=".25"/>
        <path d="M23.98 14.43c.16.08.3.2.42.34.02.04.04.08.05.12 0 .04 0 .08.01.12l-.03.12c-2.6 1.46-6.05 1.46-8.66 0l-.03-.12c0-.04 0-.08.01-.12.02-.04.04-.08.05-.12 2.51-1.29 5.49-1.27 8.17-.34Z" fill="none" stroke="#ffff" stroke-miterlimit="10" stroke-width=".25"/>
        <path d="M20.19 18.53c-.06.03-.14.03-.2 0 .06-.03.13-.03.19 0Z" fill="none" stroke="#ffff" stroke-miterlimit="10" stroke-width=".25"/>
        <path d="M23.98 22.06c.16.08.3.2.41.34.02.04.04.08.05.12 0 .04 0 .08.01.12l-.03.12c-2.61 1.47-6.04 1.46-8.65 0l-.03-.12c0-.04 0-.08.01-.12.02-.04.04-.08.05-.12 2.5-1.31 5.49-1.28 8.17-.34Z" fill="none" stroke="#ffff" stroke-miterlimit="10" stroke-width=".25"/>
        <path d="M20.2 7.82c-.06.03-.14.03-.2 0 .06-.03.13-.03.19 0Z" fill="none" stroke="#ffff" stroke-miterlimit="10" stroke-width=".25"/>
        <path d="M23.98 29.67c.21.1.38.26.47.47v.12s-.01.08-.02.12c-2.61 1.47-6.04 1.47-8.65 0l-.03-.12c0-.04 0-.08.01-.12l.05-.12c2.5-1.3 5.48-1.29 8.17-.34Z" fill="none" stroke="#ffff" stroke-miterlimit="10" stroke-width=".25"/>
        <path d="M25.81 2.37c.24.12.45.29.61.5.03.06.05.12.08.17 0 .06.01.12.02.18-.02.06-.03.12-.05.17-3.35 2.27-9.37 2.26-12.72 0-.02-.06-.03-.12-.05-.17 0-.06.01-.12.02-.18.03-.06.05-.12.08-.17C17.18.8 22.14 1 25.81 2.37Z" fill="none" stroke="#ffff" stroke-miterlimit="10" stroke-width=".25"/>
        <path d="M28.7 31.47c.47.22.83.58 1.05 1.03 0 .09.02.18.03.27-.02.09-.05.18-.07.27-4.28 3.63-14.93 3.63-19.2 0-.02-.09-.05-.18-.07-.27 0-.09.02-.18.03-.27l.12-.27c4.55-3.42 13.08-2.91 18.13-.76Z" fill="none" stroke="#ffff" stroke-miterlimit="10" stroke-width=".25"/>
        <path d="M35.12 3.66c.63.32 1.18.76 1.62 1.31.07.15.14.31.22.46.02.15.03.31.05.46l-.12.46c-5.84 6.41-27.73 6.41-33.56 0l-.12-.46c.02-.15.03-.31.05-.46.07-.15.14-.31.22-.46C10.36-1.32 27.24.05 35.12 3.66Z" fill="none" stroke="#ffff" stroke-miterlimit="10" stroke-width=".25"/>
        <path d="M33.85 26.4c.75.34 1.33.92 1.68 1.65.01.14.03.29.04.43-.04.14-.07.29-.11.43-5.54 5.93-25.19 5.93-30.72 0-.04-.14-.07-.29-.11-.43.01-.14.03-.29.04-.43 5.32-6.65 22.35-4.81 29.18-1.65Z" fill="none" stroke="#ffff" stroke-miterlimit="10" stroke-width=".25"/>
        <path d="M37.85 13.15c.96.44 1.73 1.17 2.17 2.11l.06.55c-.05.18-.09.37-.14.55-6.39 7.57-33.29 7.57-39.68 0-.05-.18-.09-.37-.14-.55l.06-.55c6.14-8.64 29.42-6 37.67-2.1Z" fill="none" stroke="#ffff" stroke-miterlimit="10" stroke-width=".25"/>
        <path d="M34.07 18.78c.75.35 1.35.93 1.7 1.66.01.15.03.29.04.44-.04.14-.07.29-.11.43-5.65 5.99-25.56 6-31.2 0-.04-.14-.07-.29-.11-.43.01-.15.03-.29.04-.44 5.51-6.69 22.61-4.89 29.63-1.66Z" fill="none" stroke="#ffff" stroke-miterlimit="10" stroke-width=".25"/>
        <path d="M30.09 11.99c0 6.31 1.36 15.6-3.63 20.86-1.58 1.66-4.32 2.74-6.3 3.48V3.14c5.46-3.56 7.47-3.39 9.65 1.74.73 1.73.36 5.68.28 7.1Z" fill="none" stroke="#ffff" stroke-miterlimit="10" stroke-width=".25"/>
        <path d="M27.96 19c0-1.48 2.33-19.77-5.67-13.22v25.9c5.73-1.55 6.02-7.74 5.68-12.68Z" fill="none" stroke="#ffff" stroke-miterlimit="10" stroke-width=".25"/>
        <path d="M19.2 7.66c0 8.06-.5 16.53.32 24.63.14 1.36.32 2.71.58 4.05 0-11.33 1.93-24.96-.48-36.03s-.01-.04-.02-.06-.01-.03-.02-.05 0-.02-.02-.03 0-.02-.02-.02-.01.02-.02.03-.01.02-.01.04-.01.03-.01.05c-.24 2.46-.28 4.93-.25 7.4Z" fill="none" stroke="#ffff" stroke-miterlimit="10" stroke-width=".25"/>
        <path d="M19.39 22.01c0-5.97-.29-12.01.16-17.96s0-.03.01-.04 0-.02 0-.02v.04c0 .01.01.03.02.04s.01.04.02.06c1.14 8.83.25 18.48.25 27.39-.51-3.14-.53-6.32-.51-9.5Z" fill="none" stroke="#ffff" stroke-miterlimit="10" stroke-width=".25"/>
        <path d="M8.6 8.65c0 6.95-2.1 18.59 4.12 24.31 1.9 1.75 5.07 2.6 7.32 3.37V3.14C15.05.9 10.87-1.04 8.96 5c-.35 1.1-.43 2.51-.36 3.65Z" fill="none" stroke="#ffff" stroke-miterlimit="10" stroke-width=".25"/>
        <path d="M11.05 22.81c0-1.05-3.19-24.33 6.54-16.97v25.9c-4.49-.82-6.71-4.61-6.54-8.93Z" fill="none" stroke="#ffff" stroke-miterlimit="10" stroke-width=".25"/>
        <path d="M1.61 12.28c0 8.39-2.13 17.96 6.6 22.26 3.43 1.69 8.32 1.4 11.8 1.81V3.16C13.76 2.45 5.1-.03 2.14 7.5c-.55 1.41-.67 3.3-.53 4.79Z" fill="none" stroke="#ffff" stroke-miterlimit="10" stroke-width=".25"/>
        <path d="M5.55 23.54c0-9.99-2.37-20.19 10.51-17.17v25.91c-5.66-.04-11.28-2.08-10.51-8.74Z" fill="none" stroke="#ffff" stroke-miterlimit="10" stroke-width=".25"/>
        <path d="M.49 18.99c0 7.55-1.27 15.13 7.2 17.61 3.78 1.11 8.63-.05 12.32-.24V3.17c-7.27.36-15.77-.56-18.97 7.36-.99 2.45-.69 6.13-.55 8.46Z" fill="none" stroke="#ffff" stroke-miterlimit="10" stroke-width=".25"/>
        <path d="M4.67 22.38c0-10.4-.4-15.59 11.15-15.34v25.92C7.08 34.07 3.86 31.38 4.67 22.38Z" fill="none" stroke="#ffff" stroke-miterlimit="10" stroke-width=".25"/>
        <path d="M5.59 16.95c0 5.66-3.05 19.19 5.27 21.43 2.71.73 6.92-1.4 9.18-2V3.19C13.48 4.9 7.97 5.84 6.05 13.01c-.34 1.27-.48 2.63-.46 3.94Z" fill="none" stroke="#ffff" stroke-miterlimit="10" stroke-width=".25"/>
        <path d="M8.7 29.39c0-7.96-3.06-20.8 8.25-21.75v25.93c-4.07 2.18-8.71 1.01-8.25-4.18Z" fill="none" stroke="#ffff" stroke-miterlimit="10" stroke-width=".25"/>
        <path d="M15.33 18.53c0-3.84-1.65 20.93 1.69 20.88 1.15-.02 2.9-2.73 3.05-3.02V3.2c-3.51 2.9-4.21 7.06-4.6 11.34-.12 1.32-.16 2.66-.15 3.99Z" fill="none" stroke="#ffff" stroke-miterlimit="10" stroke-width=".25"/>
        <path d="M16.36 30.64c0-5.06-2.32-17.73 2.71-22.66v25.94c-2.78 2.97-3.06-.33-2.71-3.27Z" fill="none" stroke="#ffff" stroke-miterlimit="10" stroke-width=".25"/>
        <path d="M26.62 20.8c0-.88 2 17.95-2.33 18.51-1.31.17-3.95-2.6-4.16-2.92V3.2c4.55 2.49 5.7 6.72 6.31 11.48.25 1.99.24 4.13.18 6.12Z" fill="none" stroke="#ffff" stroke-miterlimit="10" stroke-width=".25"/>
        <path d="M25.22 28.12c0-4.97 2.21-16.47-3.7-20.17v25.93c4.21 4.01 4.01-2.79 3.7-5.77Z" fill="none" stroke="#ffff" stroke-miterlimit="10" stroke-width=".25"/>
        <path d="M35.8 22.6c0 5.9 1.39 13.7-5.72 15.54-2.96.76-7.36-1.2-9.9-1.76V3.19c7.25 1.57 12.85 2.19 15.21 9.79.91 2.94.43 6.77.4 9.62Z" fill="none" stroke="#ffff" stroke-miterlimit="10" stroke-width=".25"/>
        <path d="M32.45 23.07c0-7.82.73-14.91-8.92-15.51v25.93c9.07 3.93 8.99-3.7 8.93-10.41Z" fill="none" stroke="#ffff" stroke-miterlimit="10" stroke-width=".25"/>
        <path d="M39.99 13.68c-.01 8.56 2.69 19.49-7.34 22.61-3.81 1.19-8.68.15-12.45.07V3.17c6.56.14 16.16-1.08 19.13 6.64.47 1.21.67 2.57.65 3.87Z" fill="none" stroke="#ffff" stroke-miterlimit="10" stroke-width=".25"/>
        <path d="M35.73 26.8c.01-12.04 2.52-20.51-11.29-19.87 0 8.64 0 17.28-.01 25.92 4.77.49 11.46.39 11.3-6.05Z" fill="none" stroke="#ffff" stroke-miterlimit="10" stroke-width=".25"/>
    </g>
</svg>
